<?xml version="1.0" standalone="no"?>
<!DOCTYPE svg PUBLIC "-//W3C//DTD SVG 20010904//EN"
 "http://www.w3.org/TR/2001/REC-SVG-20010904/DTD/svg10.dtd">
<svg version="1.0" xmlns="http://www.w3.org/2000/svg"
 width="128.000000pt" height="128.000000pt" viewBox="0 0 128.000000 128.000000"
 preserveAspectRatio="xMidYMid meet">
<metadata>
Created by potrace 1.11, written by Peter Selinger 2001-2013
</metadata>
<g transform="translate(0.000000,128.000000) scale(0.100000,-0.100000)"
fill="#000000" stroke="none">
<path d="M696 826 c-113 -57 -238 -227 -306 -416 -33 -92 -65 -133 -143 -182
-123 -77 -146 -104 -162 -190 l-7 -38 539 0 c502 0 541 1 556 18 20 22 107
262 107 295 0 39 -34 57 -105 57 l-60 0 -1 68 c0 37 -8 90 -16 117 -9 28 -24
76 -33 108 -31 113 -118 178 -245 184 -64 3 -82 0 -124 -21z m25 -493 c-10
-16 -42 -94 -71 -175 l-52 -148 -85 0 c-75 0 -84 2 -81 18 3 14 16 17 73 20
39 1 76 4 84 5 7 1 35 62 62 136 27 74 56 142 65 152 25 28 27 23 5 -8z m489
-18 c0 -13 -31 -15 -220 -15 -201 0 -233 4 -213 23 3 4 102 7 220 7 183 0 213
-2 213 -15z m-212 -97 c34 -34 -7 -132 -52 -126 -32 5 -36 81 -5 114 25 27 39
30 57 12z"/>
</g>
</svg>
