<?xml version="1.0" standalone="no"?>
<!DOCTYPE svg PUBLIC "-//W3C//DTD SVG 20010904//EN"
 "http://www.w3.org/TR/2001/REC-SVG-20010904/DTD/svg10.dtd">
<svg version="1.0" xmlns="http://www.w3.org/2000/svg"
 width="96.000000pt" height="96.000000pt" viewBox="0 0 96.000000 96.000000"
 preserveAspectRatio="xMidYMid meet">
<metadata>
Created by potrace 1.11, written by Peter Selinger 2001-2013
</metadata>
<g transform="translate(0.000000,96.000000) scale(0.100000,-0.100000)"
fill="#000000" stroke="none">
<path d="M538 624 c-16 -8 -28 -12 -28 -9 0 3 -19 -11 -41 -32 -45 -41 -115
-136 -142 -193 -28 -60 -50 -115 -48 -123 1 -4 -5 -15 -14 -23 -8 -8 -18 -21
-22 -28 -8 -13 -97 -76 -108 -76 -14 0 -45 -38 -60 -73 -30 -72 -59 -67 388
-67 372 0 405 1 419 18 14 15 26 43 34 77 2 6 12 35 23 65 34 89 25 114 -41
117 -24 0 -47 2 -53 2 -5 1 -10 24 -10 53 0 73 -49 216 -84 248 -46 41 -69 50
-129 55 -39 3 -66 0 -84 -11z"/>
</g>
</svg>
